<?xml version="1.0" encoding="UTF-8"?>
<svg id="Layer_1" data-name="Layer 1" xmlns="http://www.w3.org/2000/svg" viewBox="0 0 400 82.48" aria-hidden="true" focusable="false">
  <path d="M75.8,59.87c-14.04,0-25.42-11.38-25.42-25.42s11.38-25.42,25.42-25.42c1.13,0,2.24.07,3.33.22-3.79-1.55-7.93-2.4-12.28-2.4-17.95,0-32.51,14.55-32.51,32.51s14.55,32.51,32.51,32.51c15.96,0,29.23-11.5,31.99-26.67-4.05,8.67-12.84,14.67-23.04,14.67Z" fill="#fff"/>
  <path d="M63.67,44.03c-2.49-9.47,3.18-19.17,12.65-21.65s19.17,3.18,21.65,12.65c.2.76.35,1.53.44,2.29.37-2.83.21-5.78-.56-8.71-3.18-12.12-15.58-19.36-27.69-16.18s-19.36,15.58-16.18,27.69c2.83,10.77,12.94,17.69,23.66,16.86-6.56-1.2-12.17-6.07-13.98-12.95Z" fill="#fff"/>
  <text transform="translate(118.04 44.01)" fill="#fff" font-family="CrimsonText-Bold, &apos;Crimson Text&apos;" font-size="27" font-weight="700"><tspan x="0" y="0" letter-spacing=".03em">CADING</tspan><tspan x="107.96" y="0" letter-spacing="0em">T</tspan><tspan x="125.51" y="0" xml:space="preserve" letter-spacing=".03em">ON  &amp; CO.</tspan></text>
  <text transform="translate(119.71 64.41)" fill="#fff" font-family="Nunito Sans, Nunito-ExtraLight, Nunito" font-size="16" font-variation-settings="&apos;wght&apos; 200" font-weight="200"><tspan x="0" y="0" letter-spacing="0em">F</tspan><tspan x="8.62" y="0" letter-spacing=".02em">ami</tspan><tspan x="34.75" y="0" letter-spacing=".01em">l</tspan><tspan x="39.36" y="0" letter-spacing="-.03em">y</tspan><tspan x="46.99" y="0" letter-spacing=".02em">. </tspan><tspan x="55.04" y="0" letter-spacing="-.01em">C</tspan><tspan x="65.52" y="0" letter-spacing=".02em">ommuni</tspan><tspan x="124.11" y="0" letter-spacing=".03em">t</tspan><tspan x="129.68" y="0" letter-spacing="-.03em">y</tspan><tspan x="137.31" y="0" letter-spacing=".02em">. Su</tspan><tspan x="164.42" y="0" letter-spacing=".02em">s</tspan><tspan x="172.3" y="0" letter-spacing=".02em">tainabili</tspan><tspan x="229.69" y="0" letter-spacing=".03em">t</tspan><tspan x="235.26" y="0" letter-spacing=".02em">y</tspan></text>
</svg>